<svg height="512pt" viewBox="0 -40 512 512" width="512pt" xmlns="http://www.w3.org/2000/svg"><path d="m287.453125 0c-38.503906 0-71.636719 23.441406-85.875 56.800781-14.242187-33.359375-47.371094-56.800781-85.875-56.800781-51.460937 0-93.324219 41.863281-93.324219 93.320312 0 51.460938 41.863282 93.324219 93.324219 93.324219 38.503906 0 71.632813-23.441406 85.875-56.800781 14.242187 33.359375 47.371094 56.800781 85.875 56.800781 51.457031 0 93.320313-41.863281 93.320313-93.324219 0-51.457031-41.863282-93.320312-93.320313-93.320312zm0 0" fill="#2c303e"/><path d="m287.453125 131.761719c-21.199219 0-38.441406-17.246094-38.441406-38.441407 0-21.195312 17.242187-38.4375 38.441406-38.4375 21.195313 0 38.4375 17.242188 38.4375 38.4375 0 21.195313-17.242187 38.441407-38.4375 38.441407zm0 0" fill="#565965"/><path d="m115.703125 131.761719c-21.195313 0-38.441406-17.246094-38.441406-38.441407 0-21.195312 17.246093-38.4375 38.441406-38.4375s38.4375 17.242188 38.4375 38.4375c0 21.195313-17.242187 38.441407-38.4375 38.441407zm0 0" fill="#565965"/><path d="m506.414062 202.664062c-3.535156-2.878906-8.171874-4.003906-12.636718-3.078124l-123.65625 25.726562c-7.019532 1.460938-12.050782 7.648438-12.050782 14.820312v115.625c0 7.171876 5.03125 13.359376 12.050782 14.820313l123.65625 25.726563c1.027344.214843 2.058594.316406 3.085937.316406 3.449219 0 6.828125-1.179688 9.550781-3.394532 3.535157-2.875 5.585938-7.183593 5.585938-11.742187v-167.082031c0-4.554688-2.050781-8.867188-5.585938-11.738282zm0 0" fill="#f4f4f6"/><path d="m358.070312 298.433594v57.328125c0 7.167969 5.03125 13.355469 12.050782 14.816406l123.660156 25.726563c1.023438.214843 2.054688.316406 3.082031.316406 3.449219 0 6.828125-1.179688 9.550781-3.390625 3.535157-2.875 5.585938-7.1875 5.585938-11.742188v-83.054687zm0 0" fill="#e3e4e8"/><path d="m345.0625 163.9375h-301.785156c-23.863282 0-43.277344 19.417969-43.277344 43.28125v182.425781c0 23.863281 19.414062 43.28125 43.277344 43.28125h301.785156c23.863281 0 43.28125-19.414062 43.28125-43.28125v-182.425781c0-23.863281-19.417969-43.28125-43.28125-43.28125zm0 0" fill="#494f60"/><path d="m0 298.433594v91.214844c0 23.863281 19.414062 43.277343 43.277344 43.277343h301.785156c23.863281 0 43.28125-19.414062 43.28125-43.277343v-91.214844zm0 0" fill="#3a4052"/><path d="m257.769531 364.929688h-173.011719c-8.355468 0-15.132812-6.777344-15.132812-15.136719v-77.703125c0-8.359375 6.777344-15.136719 15.132812-15.136719h173.011719c8.359375 0 15.136719 6.777344 15.136719 15.136719v77.703125c0 8.359375-6.777344 15.136719-15.136719 15.136719zm0 0" fill="#fecb5b"/><path d="m69.625 298.433594v51.359375c0 8.359375 6.777344 15.136719 15.132812 15.136719h173.011719c8.359375 0 15.136719-6.777344 15.136719-15.136719v-51.359375zm0 0" fill="#f7b545"/></svg>